<svg xmlns="http://www.w3.org/2000/svg" viewBox="0 0 512 512" width="512" height="512" role="img" aria-label="Maneki-Neko app icon">
      <defs>
        <radialGradient id="ic6-bg" cx=".5" cy=".55" r=".75"><stop offset="0" stop-color="#f3b851"/><stop offset="1" stop-color="#ad7a1f"/></radialGradient>
        <clipPath id="ic6-clip"><rect width="512" height="512" rx="112"/></clipPath>
      </defs>
      <g clip-path="url(#ic6-clip)">
        <rect width="512" height="512" fill="url(#ic6-bg)"/>
        <path d="M256,300 L676.0,300.0 L667.9,381.9 Z M256,300 L644.0,460.7 L605.2,533.3 Z M256,300 L553.0,597.0 L489.3,649.2 Z M256,300 L416.7,688.0 L337.9,711.9 Z M256,300 L256.0,720.0 L174.1,711.9 Z M256,300 L95.3,688.0 L22.7,649.2 Z M256,300 L-41.0,597.0 L-93.2,533.3 Z M256,300 L-132.0,460.7 L-155.9,381.9 Z M256,300 L-164.0,300.0 L-155.9,218.1 Z M256,300 L-132.0,139.3 L-93.2,66.7 Z M256,300 L-41.0,3.0 L22.7,-49.2 Z M256,300 L95.3,-88.0 L174.1,-111.9 Z M256,300 L256.0,-120.0 L337.9,-111.9 Z M256,300 L416.7,-88.0 L489.3,-49.2 Z M256,300 L553.0,3.0 L605.2,66.7 Z M256,300 L644.0,139.3 L667.9,218.1 Z" fill="#FFF1C2" opacity=".16"/>
        <circle cx="256" cy="300" r="190" fill="#FFF1C2" opacity=".22"/>
        <circle cx="256" cy="300" r="190" fill="none" stroke="#FFF1C2" stroke-width="6" opacity=".6"/>
        <svg x="54" y="37.48000000000002" width="404" height="456.52" viewBox="0 0 200 226"><defs>
      <radialGradient id="nk5cscq-fur" gradientUnits="userSpaceOnUse" cx="96" cy="70" r="120">
        <stop offset="0" stop-color="#b7b4b2"/><stop offset=".55" stop-color="#A9A6A3"/><stop offset="1" stop-color="#878582"/>
      </radialGradient>
      <radialGradient id="nk5cscq-eye" cx=".45" cy=".4" r=".7">
        <stop offset="0" stop-color="#dcd78a"/><stop offset=".6" stop-color="#C9C24B"/><stop offset="1" stop-color="#8d8835"/>
      </radialGradient>
      <linearGradient id="nk5cscq-gold" x1="0" y1="0" x2="1" y2="1">
        <stop offset="0" stop-color="#fff7dd"/><stop offset=".5" stop-color="#FFF1C2"/><stop offset="1" stop-color="#bfb592"/>
      </linearGradient>
    </defs><path d="M150,206 C178,204 188,180 176,160" stroke="#555352" stroke-width="16" fill="none" stroke-linecap="round"/><path d="M150,206 C178,204 188,180 176,160" stroke="#A9A6A3" stroke-width="11.5" fill="none" stroke-linecap="round"/><g stroke="#6C6866" stroke-width="3" stroke-linecap="round" opacity=".85"><path d="M172,196 L180,201"/><path d="M180,182 L188,183"/><path d="M178,168 L186,165"/></g><path d="M46,206 C40,160 54,128 100,124 C146,128 160,160 154,206 C154,214 148,219 140,219 L60,219 C52,219 46,214 46,206 Z" fill="url(#nk5cscq-fur)" stroke="#555352" stroke-width="2.4"/><ellipse cx="100" cy="178" rx="36" ry="34" fill="#E7E3DD"/><g stroke="#6C6866" stroke-width="3.2" stroke-linecap="round" fill="none" opacity=".75">
          <path d="M50,168 Q58,162 64,170"/><path d="M49,184 Q57,178 64,186"/><path d="M52,199 Q58,195 64,201"/>
          <path d="M150,168 Q142,162 136,170"/><path d="M151,184 Q143,178 136,186"/><path d="M148,199 Q142,195 136,201"/>
          <path d="M90,166 Q100,170 110,166" opacity=".35"/><path d="M88,182 Q100,187 112,182" opacity=".35"/></g><ellipse cx="74" cy="213" rx="17" ry="9.5" fill="#E7E3DD" stroke="#555352" stroke-width="2.2"/>
        <path d="M69,207 L69,212 M79,207 L79,212" stroke="#555352" stroke-width="1.6" stroke-linecap="round" opacity=".6"/><ellipse cx="126" cy="213" rx="17" ry="9.5" fill="#E7E3DD" stroke="#555352" stroke-width="2.2"/>
        <path d="M121,207 L121,212 M131,207 L131,212" stroke="#555352" stroke-width="1.6" stroke-linecap="round" opacity=".6"/><path d="M50,124 Q100,152 150,124 L152,137 Q100,166 48,137 Z" fill="#D7263D" stroke="#8c1928" stroke-width="1.8"/><path d="M44,64 C35,40 39,16 50,9 C63,11 81,23 93,34 Z" fill="#9b9996" stroke="#555352" stroke-width="2.4" stroke-linejoin="round"/><path d="M52,54 C48,38 51,24 55,19 C64,23 74,30 83,37 Z" fill="#EDBDBA"/><path d="M50,30 C54,34 58,38 60,44" stroke="#6C6866" stroke-width="2" fill="none" stroke-linecap="round" opacity=".5"/><g transform="matrix(-1 0 0 1 200 0)"><path d="M44,64 C35,40 39,16 50,9 C63,11 81,23 93,34 Z" fill="#9b9996" stroke="#555352" stroke-width="2.4" stroke-linejoin="round"/><path d="M52,54 C48,38 51,24 55,19 C64,23 74,30 83,37 Z" fill="#EDBDBA"/><path d="M50,30 C54,34 58,38 60,44" stroke="#6C6866" stroke-width="2" fill="none" stroke-linecap="round" opacity=".5"/></g><path d="M100,23 C142,23 165,48 165,80 C167,98 162,112 150,122 C138,132 120,136 100,136 C80,136 62,132 50,122 C38,112 33,98 35,80 C35,48 58,23 100,23 Z" fill="url(#nk5cscq-fur)" stroke="#555352" stroke-width="2.4"/><g stroke="#6C6866" stroke-linecap="round" fill="none" opacity=".85">
        <path d="M100,27 L100,52" stroke-width="4.2"/>
        <path d="M91,29 Q88.5,41 92,54" stroke-width="3.8"/>
        <path d="M109,29 Q111.5,41 108,54" stroke-width="3.8"/>
        <path d="M82,33 Q79,43 84,50" stroke-width="3.2"/>
        <path d="M118,33 Q121,43 116,50" stroke-width="3.2"/>
        <path d="M40,82 Q50,80 60,86" stroke-width="3"/>
        <path d="M42,93 Q52,91 60,95" stroke-width="3"/>
        <path d="M160,82 Q150,80 140,86" stroke-width="3"/>
        <path d="M158,93 Q148,91 140,95" stroke-width="3"/>
        <path d="M86,73 Q80,70 72,66" stroke-width="2" opacity=".6"/>
        <path d="M114,73 Q120,70 128,66" stroke-width="2" opacity=".6"/>
      </g><ellipse cx="91" cy="107" rx="11.5" ry="9" fill="#E7E3DD"/><ellipse cx="109" cy="107" rx="11.5" ry="9" fill="#E7E3DD"/><ellipse cx="100" cy="117" rx="9" ry="5.5" fill="#E7E3DD"/><ellipse cx="59" cy="104" rx="9" ry="5" fill="#F4929B" opacity="0.32"/><ellipse cx="141" cy="104" rx="9" ry="5" fill="#F4929B" opacity="0.32"/><g>
      <circle cx="76" cy="80" r="14.8" fill="#6f6b29"/>
      <circle cx="76" cy="80" r="13" fill="url(#nk5cscq-eye)"/>
      <ellipse cx="76" cy="80.5" rx="9.5" ry="10.3" fill="#1E1A1A"/>
      <circle cx="71.8" cy="75" r="3.9" fill="#fff"/>
      <circle cx="80.5" cy="84.2" r="1.7" fill="#fff" opacity=".85"/>
    </g><g>
      <circle cx="124" cy="80" r="14.8" fill="#6f6b29"/>
      <circle cx="124" cy="80" r="13" fill="url(#nk5cscq-eye)"/>
      <ellipse cx="124" cy="80.5" rx="9.5" ry="10.3" fill="#1E1A1A"/>
      <circle cx="119.8" cy="75" r="3.9" fill="#fff"/>
      <circle cx="128.5" cy="84.2" r="1.7" fill="#fff" opacity=".85"/>
    </g><path d="M93,95.5 Q100,91.5 107,95.5 Q104.5,101.5 100,103.5 Q95.5,101.5 93,95.5 Z" fill="#CFA0A0" stroke="#9b7878" stroke-width="1"/><path d="M100,103.5 Q99.5,110.5 92.5,111.5 M100,103.5 Q100.5,110.5 107.5,111.5" stroke="#555352" stroke-width="2.2" fill="none" stroke-linecap="round"/><g stroke="#FFFFFF" stroke-width="1.3" stroke-linecap="round" opacity=".95">
      <path d="M82,105 L38,97"/><path d="M82,109 L36,110"/><path d="M83,113 L40,122"/>
      <path d="M118,105 L162,97"/><path d="M118,109 L164,110"/><path d="M117,113 L160,122"/>
    </g><g>
      <circle cx="100" cy="151" r="9.5" fill="url(#nk5cscq-gold)" stroke="#8c856b" stroke-width="1.8"/>
      <path d="M91,150 L109,150" stroke="#8c856b" stroke-width="1.6"/>
      <circle cx="100" cy="155" r="2.2" fill="#736c57"/>
      <circle cx="96.5" cy="146.5" r="2" fill="#fff" opacity=".7"/>
    </g><g transform="translate(132 180) scale(1)">
      <ellipse cx="0" cy="0" rx="19" ry="27" fill="url(#nk5cscq-gold)" stroke="#8c856b" stroke-width="2.4"/>
      <ellipse cx="0" cy="0" rx="14" ry="21.5" fill="none" stroke="#8c856b" stroke-width="1.2" opacity=".6"/>
      <text x="0" y="-3" text-anchor="middle" font-size="12" font-weight="700" fill="#8c856b" font-family="'Hiragino Mincho ProN','Yu Mincho','Noto Serif JP',serif">千</text>
      <text x="0" y="13" text-anchor="middle" font-size="12" font-weight="700" fill="#8c856b" font-family="'Hiragino Mincho ProN','Yu Mincho','Noto Serif JP',serif">両</text>
      <path d="M-11,-16 Q-14,-4 -11,10" stroke="#fff" stroke-width="2.4" fill="none" stroke-linecap="round" opacity=".55"/>
    </g><ellipse cx="115" cy="170" rx="12.5" ry="11.5" fill="#A9A6A3" stroke="#555352" stroke-width="2.2"/>
        <path d="M110,163 L110,169 M116,162 L116,168" stroke="#555352" stroke-width="1.5" stroke-linecap="round" opacity=".6"/><g class="nk-arm"><path d="M64,152 C52,142 42,126 36,108" stroke="#555352" stroke-width="27" fill="none" stroke-linecap="round"/><path d="M64,152 C52,142 42,126 36,108" stroke="#A9A6A3" stroke-width="22" fill="none" stroke-linecap="round"/><g stroke="#6C6866" stroke-width="3" stroke-linecap="round" opacity=".8"><path d="M40,134 L51,127"/><path d="M47,144 L57,136"/><path d="M36,122 L46,117"/></g><circle cx="34" cy="97" r="15.5" fill="#A9A6A3" stroke="#555352" stroke-width="2.4"/>
      <ellipse cx="34" cy="101.34" rx="6.2" ry="4.96" fill="#EDBDBA"/>
      <circle cx="27.025" cy="92.66" r="2.6350000000000002" fill="#EDBDBA"/>
      <circle cx="34" cy="89.87" r="2.6350000000000002" fill="#EDBDBA"/>
      <circle cx="40.975" cy="92.66" r="2.6350000000000002" fill="#EDBDBA"/></g></svg>
      </g>
      <rect x="5" y="5" width="502" height="502" rx="107" fill="none" stroke="#FFF1C2" stroke-width="10"/>
    </svg>