<svg xmlns="http://www.w3.org/2000/svg" viewBox="10 -10 180 180" width="256" height="256" role="img" aria-label="Mit the maneki-neko"><defs>
      <radialGradient id="nkhfd7b-fur" gradientUnits="userSpaceOnUse" cx="96" cy="70" r="120">
        <stop offset="0" stop-color="#b7b4b2"/><stop offset=".55" stop-color="#A9A6A3"/><stop offset="1" stop-color="#878582"/>
      </radialGradient>
      <radialGradient id="nkhfd7b-eye" cx=".45" cy=".4" r=".7">
        <stop offset="0" stop-color="#dcd78a"/><stop offset=".6" stop-color="#C9C24B"/><stop offset="1" stop-color="#8d8835"/>
      </radialGradient>
      <linearGradient id="nkhfd7b-gold" x1="0" y1="0" x2="1" y2="1">
        <stop offset="0" stop-color="#f9dd9d"/><stop offset=".5" stop-color="#F4C24D"/><stop offset="1" stop-color="#b7923a"/>
      </linearGradient>
    </defs><circle cx="100" cy="80" r="90" fill="#FFF1D0"/><clipPath id="nkhfd7b-clip"><circle cx="100" cy="80" r="90"/></clipPath><g clip-path="url(#nkhfd7b-clip)"><path d="M46,190 C46,140 70,124 100,124 C130,124 154,140 154,190 Z" fill="url(#nkhfd7b-fur)" stroke="#555352" stroke-width="2.4"/><path d="M56,126 Q100,150 144,126 L146,138 Q100,162 54,138 Z" fill="#D7263D" stroke="#8c1928" stroke-width="1.8"/><path d="M44,64 C35,40 39,16 50,9 C63,11 81,23 93,34 Z" fill="#9b9996" stroke="#555352" stroke-width="2.4" stroke-linejoin="round"/><path d="M52,54 C48,38 51,24 55,19 C64,23 74,30 83,37 Z" fill="#EDBDBA"/><path d="M50,30 C54,34 58,38 60,44" stroke="#6C6866" stroke-width="2" fill="none" stroke-linecap="round" opacity=".5"/><g transform="matrix(-1 0 0 1 200 0)"><path d="M44,64 C35,40 39,16 50,9 C63,11 81,23 93,34 Z" fill="#9b9996" stroke="#555352" stroke-width="2.4" stroke-linejoin="round"/><path d="M52,54 C48,38 51,24 55,19 C64,23 74,30 83,37 Z" fill="#EDBDBA"/><path d="M50,30 C54,34 58,38 60,44" stroke="#6C6866" stroke-width="2" fill="none" stroke-linecap="round" opacity=".5"/></g><path d="M100,23 C142,23 165,48 165,80 C167,98 162,112 150,122 C138,132 120,136 100,136 C80,136 62,132 50,122 C38,112 33,98 35,80 C35,48 58,23 100,23 Z" fill="url(#nkhfd7b-fur)" stroke="#555352" stroke-width="2.4"/><g stroke="#6C6866" stroke-linecap="round" fill="none" opacity=".85">
        <path d="M100,27 L100,52" stroke-width="4.2"/>
        <path d="M91,29 Q88.5,41 92,54" stroke-width="3.8"/>
        <path d="M109,29 Q111.5,41 108,54" stroke-width="3.8"/>
        <path d="M82,33 Q79,43 84,50" stroke-width="3.2"/>
        <path d="M118,33 Q121,43 116,50" stroke-width="3.2"/>
        <path d="M40,82 Q50,80 60,86" stroke-width="3"/>
        <path d="M42,93 Q52,91 60,95" stroke-width="3"/>
        <path d="M160,82 Q150,80 140,86" stroke-width="3"/>
        <path d="M158,93 Q148,91 140,95" stroke-width="3"/>
        <path d="M86,73 Q80,70 72,66" stroke-width="2" opacity=".6"/>
        <path d="M114,73 Q120,70 128,66" stroke-width="2" opacity=".6"/>
      </g><ellipse cx="91" cy="107" rx="11.5" ry="9" fill="#E7E3DD"/><ellipse cx="109" cy="107" rx="11.5" ry="9" fill="#E7E3DD"/><ellipse cx="100" cy="117" rx="9" ry="5.5" fill="#E7E3DD"/><ellipse cx="59" cy="104" rx="9" ry="5" fill="#F4929B" opacity="0.32"/><ellipse cx="141" cy="104" rx="9" ry="5" fill="#F4929B" opacity="0.32"/><g>
      <circle cx="76" cy="80" r="14.8" fill="#6f6b29"/>
      <circle cx="76" cy="80" r="13" fill="url(#nkhfd7b-eye)"/>
      <ellipse cx="76" cy="80.5" rx="7.5" ry="8.3" fill="#1E1A1A"/>
      <circle cx="71.8" cy="75" r="3.9" fill="#fff"/>
      <circle cx="80.5" cy="84.2" r="1.7" fill="#fff" opacity=".85"/>
    </g><g>
      <circle cx="124" cy="80" r="14.8" fill="#6f6b29"/>
      <circle cx="124" cy="80" r="13" fill="url(#nkhfd7b-eye)"/>
      <ellipse cx="124" cy="80.5" rx="7.5" ry="8.3" fill="#1E1A1A"/>
      <circle cx="119.8" cy="75" r="3.9" fill="#fff"/>
      <circle cx="128.5" cy="84.2" r="1.7" fill="#fff" opacity=".85"/>
    </g><path d="M62,64 L86,58" stroke="#555352" stroke-width="3" stroke-linecap="round"/><path d="M138,64 L114,58" stroke="#555352" stroke-width="3" stroke-linecap="round"/><path d="M152,44 C148,52 146,56 150,59 C154,62 158,58 157,54 C156,50 153,47 152,44 Z" fill="#7EC8F2" stroke="#4A9BCB" stroke-width="1.2"/><path d="M93,95.5 Q100,91.5 107,95.5 Q104.5,101.5 100,103.5 Q95.5,101.5 93,95.5 Z" fill="#CFA0A0" stroke="#9b7878" stroke-width="1"/><path d="M91,113 Q95.5,109 100,113 Q104.5,117 109,113" stroke="#555352" stroke-width="2.2" fill="none" stroke-linecap="round"/><g stroke="#FFFFFF" stroke-width="1.3" stroke-linecap="round" opacity=".95">
      <path d="M82,105 L38,97"/><path d="M82,109 L36,110"/><path d="M83,113 L40,122"/>
      <path d="M118,105 L162,97"/><path d="M118,109 L164,110"/><path d="M117,113 L160,122"/>
    </g><g>
      <circle cx="100" cy="148" r="9.5" fill="url(#nkhfd7b-gold)" stroke="#866b2a" stroke-width="1.8"/>
      <path d="M91,147 L109,147" stroke="#866b2a" stroke-width="1.6"/>
      <circle cx="100" cy="152" r="2.2" fill="#6e5723"/>
      <circle cx="96.5" cy="143.5" r="2" fill="#fff" opacity=".7"/>
    </g></g></svg>